# xmcd
# 
# Track frame offsets:
#     150
#     11521
#     23159
#     37583
#     52978
#     64585
#     74482
#     88080
#     98575
#     107831
#     121828
#     133615
#     149401
#     161361
#     173448
#     185429
#     199721
#     214364
#     227435
#     238456
#     249509
#     261910
#     275614
#     287902
#     299231
#     311543
#     323202
#     334547
# 
# Disc length: 4617
# 
# Revision: 0
# Processed by: cddbd v1.5.2PL0 Copyright (c) Steve Scherf et al.
# Submitted via: BonkEnc v1.0.8
# 
DISCID=9b12071c
DTITLE=Various Artist - Sur la route de Nashville
DYEAR=2006
DGENRE=Country
TTITLE0=Dottie DeLeon, The Nashvifie Sounds - Tennessee Waltz
TTITLE1=Bobby Sykes - Oh! Lonesome Me
TTITLE2=Louis Nunley - Me and Bobby Mc Gee
TTITLE3=Lou Darnell et Bobby Sykes - Have I Told You Lately That I Love You
TTITLE4=Bobby Sykes - Fraulein
TTITLE5=Lee Miles et Bobby Sykes - Nobody’s Business
TTITLE6=Laura Lee - When There’s a Fire in Your Heart
TTITLE7=Lou Darnell et Bobby Sykes - Bouquet of Roses
TTITLE8=The Hurshel Wiginton Singers - Company’s Comin’
TTITLE9=Lee Miles et Bobby Sykes - I’ll Never Be Free
TTITLE10=Louis Nunley, The Nashville Sounds - Singing the Blues
TTITLE11=Bobby Sykes - Cold, Cold Heart
TTITLE12=Steve Clayton - Gentle on My Mind
TTITLE13=Laura Lee - Stand by Your Man
TTITLE14=The Nashville Sounds - Faded Love
TTITLE15=The Robinsons - 500 Miles
TTITLE16=Bobby Sykes - Born to Lose
TTITLE17=Billie Rose, The Nashville Sounds - Jealous Heart
TTITLE18=Bobby Sykes - I Can’t Stop Loving You
TTITLE19=Laura Lee - Don’t Touch Me
TTITLE20=Bobby Sykes et Lee Miles - A Dear John Letter
TTITLE21=Gene Martin - Roll Along Kentucky Moon
TTITLE22=George Mc Cormick - I’m so Lonesome! Could Cry
TTITLE23=Gene Martin - Miss the Mississippi and You
TTITLE24=George Mc Cormick - Lonesome Whistle
TTITLE25=Louis Nunley, Hank Levine orch. - Everybody’s Taikin
TTITLE26=Floyd Cramer - Worried Mind
TTITLE27=Floyd Cramer - Blue Eyes Cryin’ in the Rain
EXTD=
EXTT0=
EXTT1=
EXTT2=
EXTT3=
EXTT4=
EXTT5=
EXTT6=
EXTT7=
EXTT8=
EXTT9=
EXTT10=
EXTT11=
EXTT12=
EXTT13=
EXTT14=
EXTT15=
EXTT16=
EXTT17=
EXTT18=
EXTT19=
EXTT20=
EXTT21=
EXTT22=
EXTT23=
EXTT24=
EXTT25=
EXTT26=
EXTT27=
PLAYORDER=
